<svg viewBox="0 0 1024 1024" version="1.1" xmlns="http://www.w3.org/2000/svg" width="200" height="200">
    <path d="M512 96C282.624 96 96 282.624 96 512s186.624 416 416 416 416-186.624 416-416S741.376 96 512 96z m0 64c194.752 0 352 157.248 352 352s-157.248 352-352 352S160 706.752 160 512 317.248 160 512 160z m0 96c-152.256 26.88-288 167.264-288 320 74.496-131.52 124.256-140.992 138.016-140.992 13.76 0 20.992 7.104 20.992 23.008v195.968c0 24.384-47.36 20.384-63.008 18.016 57.888 86.112 192 96 192 96l64-64 64 32c100.992-46.24 160-145.28 160-160-43.872 48.384-87.488 64-96 64s-32-4.384-32-16v-232c0-20.128 46.496-81.6 64-104-115.52 30.24-148.992 83.008-148.992 83.008S578.24 352 544 352c12.736 11.008 32 40.736 32 64v196S534.24 640 512 640c-22.24 0-32.992-8.992-32.992-26.016 0-16.96 0.992-229.984 0.992-229.984s-32 11.744-32-54.016C448 297.152 512 256 512 256z"/>
</svg>