<svg xmlns="http://www.w3.org/2000/svg">
    <symbol id="icon-1" viewBox="0 0 1024 1024">
        <path d="M192.75581 584.850286S176.176762 502.247619 263.996952 402.285714C351.865905 302.32381 417.792 265.99619 488.935619 247.076571l-0.097524 0.048762 0.24381-0.048762s-55.881143 32.572952-55.881143 81.773715c0 14.287238 2.243048 24.137143 5.412571 30.671238 4.193524 8.728381 10.825143 11.702857 16.774096 11.702857 5.022476 0 7.94819-2.048 14.287238-4.486095v266.532571s0.682667 4.291048 4.583619 9.411048c5.510095 7.314286 14.287238 16.237714 30.671238 16.335238 27.989333-0.146286 63.195429-31.792762 63.195428-31.792762V411.40419c0-21.942857-15.750095-48.469333-32.377904-57.539047 0 0 2.243048-0.146286 5.948952-0.146286 10.971429 0 34.57219 1.26781 47.737905 11.264 3.608381-4.193524 62.561524-70.89981 167.399619-91.379809h-0.048762 0.292571s-58.026667 68.266667-76.166095 102.107428c-3.267048 0.195048-3.705905 64.26819-3.169524 128.24381 0.487619 61.830095 1.950476 123.562667 2.828191 127.804952 0 0 6.192762 9.264762 21.942857 9.264762 17.798095 0.146286 47.737905-11.410286 94.695619-60.757333 0 0-1.26781 2.82819-3.754667 7.801904-13.458286 26.86781-63.439238 117.028571-152.283428 169.398858l-57.58781-48.713143-1.462857-1.219048-62.854095 66.608762h-0.097524s-143.213714-12.092952-203.044571-98.450286l0.243809 0.146286-0.048762-0.146286s9.069714 3.559619 19.260953 3.754667c11.995429 0.195048 24.576-4.193524 24.576-24.185905V452.315429a21.504 21.504 0 0 0-22.77181-21.942858c-14.140952 0-34.328381 9.508571-61.927619 37.839239-58.319238 59.830857-82.553905 116.638476-82.553905 116.638476v-0.24381l-0.146285 0.24381zM511.024762 928.914286a415.548952 415.548952 0 0 0 295.789714-122.538667 415.548952 415.548952 0 0 0 122.489905-295.740952 415.548952 415.548952 0 0 0-122.489905-295.789715 415.548952 415.548952 0 0 0-295.789714-122.538666 415.548952 415.548952 0 0 0-295.789714 122.538666A415.548952 415.548952 0 0 0 92.647619 510.634667c0 111.664762 43.544381 216.746667 122.538667 295.740952a415.548952 415.548952 0 0 0 295.789714 122.538667z"
              fill="#ff7a1e"/>
        <path d="M510.927238 73.045333a437.540571 437.540571 0 1 1 0 875.129905 437.540571 437.540571 0 0 1 0-875.129905z m0 887.564191c120.198095 0 233.22819-46.811429 318.220191-131.803429a447.049143 447.049143 0 0 0 131.803428-318.171428c0-120.198095-46.811429-233.22819-131.803428-318.220191a447.049143 447.049143 0 0 0-318.220191-131.803428c-120.198095 0-233.179429 46.811429-318.171428 131.803428A447.049143 447.049143 0 0 0 60.952381 510.634667c0 120.198095 46.811429 233.179429 131.803429 318.171428A447.049143 447.049143 0 0 0 510.927238 960.609524z"
              fill="#ff7a1e"/>
    </symbol>
</svg>